<svg xmlns="http://www.w3.org/2000/svg" viewBox="0 0 500 500"><g id="freepik--Character--inject-11"><path d="M320.53,443.87l-126.15.82a27.46,27.46,0,0,1-27.65-27.28l-2.21-316.25a27.49,27.49,0,0,1,27.3-27.67L318,72.66A27.47,27.47,0,0,1,345.62,100l2.21,316.25A27.49,27.49,0,0,1,320.53,443.87Z" style="fill:#263238"></path><path d="M317.91,83.58l-24.46.16A6.07,6.07,0,0,0,287.56,90l0,4.43a6.08,6.08,0,0,1-5.9,6.25L234,101a6.07,6.07,0,0,1-6-6.17l0-4.43a6.09,6.09,0,0,0-6-6.17l-8.6.05-21.4.15a19.23,19.23,0,0,0-19.12,19.37l2.15,308.68a19.24,19.24,0,0,0,19.37,19.11l125.89-.82a19.25,19.25,0,0,0,19.12-19.38l-2.15-308.68A19.25,19.25,0,0,0,317.91,83.58Z" style="fill:#fafafa"></path><path d="M280.85,206.35c-3.58.42-6.06-1.53-6.66-3.8l-.07,0-.23,5.91a1.85,1.85,0,0,1,.64.06h0a49.39,49.39,0,0,1,5.39.81A9.87,9.87,0,0,1,280.85,206.35Z" style="fill:none"></path><path d="M291.37,211.71a5.55,5.55,0,0,0-.43-3l0-.07a10.42,10.42,0,0,1,0,4.2l.14,0A5.84,5.84,0,0,0,291.37,211.71Z" style="fill:none"></path><path d="M287.78,173.31l0,.59a59.22,59.22,0,0,1-.6,11.06,21.26,21.26,0,0,0,1.17-7A20.53,20.53,0,0,0,287.78,173.31Z" style="fill:none"></path><path d="M282.17,424.76l1.77.27v-.11l-2.52-.27Z" style="fill:#b78876"></path><path d="M253.48,431.19c0-.25-.06-.51-.08-.75a39.23,39.23,0,0,1-.08-6.43c.06-.75.14-1.34.21-1.73a4.37,4.37,0,0,1,.11-.56c-3.74-.4-7.12-.74-9.88-1l-5.56-.56.87,11.14Z" style="fill:#b78876"></path><path d="M263,422.75c-3.27-.37-6.38-.72-9.28-1,0,.19-.06,1-.09,2.31a46.32,46.32,0,0,0,.29,6.36c0,.26.07.53.11.79l31.56-.21c-.94-3-1.51-4.88-1.6-5.29a2.33,2.33,0,0,1,0-.32l-1.81-.23C277.22,424.48,270.45,423.62,263,422.75Z" style="fill:#b78876"></path><path d="M253.59,424c0-1.32.11-2.12.09-2.31h0a4.37,4.37,0,0,0-.11.56c-.07.39-.15,1-.21,1.73a39.23,39.23,0,0,0,.08,6.43c0,.24.06.5.08.75H254c0-.26-.08-.53-.11-.79A46.32,46.32,0,0,1,253.59,424Z" style="fill:#a36957"></path><path d="M214,242.86l-5.07-5.76.49-.5c-3.69,2.84-6.43,4.57-6.67,3.66-4.43-16.17-3.89-37-3.47-44.94.43-.7.91-1.47,1.49-2.31a10.79,10.79,0,0,1,2.46-2.54,15.94,15.94,0,0,1,3.79-2.26c1.29-.41,1.46-2.15.31-2.54s-4.74.64-8,3.54-2.1-3.8-1.71-6.24,1.22-10.07.56-10.77c-1-1-2.27-.15-2.6,2.31s-1.83,9.75-3.12,9.51.87-12.67.87-12.67.89-2.59-.59-2.91c-2.66-.57-4,12.79-4.05,14.07-.06.88-1.47.68-1.35-.27s2.42-12.37-.29-13c-2.07-.46-1.16,11-2.95,13.13s.2-8.78-1.81-9.15c-.74-.14-1.32-.13-1.56,6.27a140.74,140.74,0,0,0,1,15.43c-1.27,17.61-3.21,71.47,21,68.94,9.94-1,17.13-4.46,22.3-8.48l-10.78-12.26Z" style="fill:#b78876"></path><path d="M270.17,306.19l20.21.59c.09-6.16.18-12.16.27-17.94a8.24,8.24,0,0,1-.29-.84v-.89c-5.82-.14-12.5-.3-19.73-.49Q270.37,296.09,270.17,306.19Z" style="fill:#455a64"></path><path d="M259.5,286.33,247.9,286c-.24,6.3-.48,12.85-.72,19.56l10.69.28,11.78.32c.14-6.73.31-13.27.49-19.57Z" style="fill:#455a64"></path><path d="M289.52,387.5,269.76,387c0,1.71,0,3.4.05,5,.08,5.55.15,10.47.21,14.69l19.7.59c-.05-3.76-.14-8-.16-12.75C289.54,392.32,289.53,390,289.52,387.5Z" style="fill:#455a64"></path><path d="M290.14,417.28c0,2.66.07,4.74.09,6.17,0,.69,0,1.23,0,1.61s0,.55,0,.55,1.68-7.06,3.82-17.82l-4-.09C290,411.43,290.09,414.65,290.14,417.28Z" style="fill:#455a64"></path><path d="M289.93,394.58c0,4.72.06,9,.09,12.76l4.1.13c1.14-5.74,2.41-12.5,3.63-19.8l-7.83-.16Q289.92,391.18,289.93,394.58Z" style="fill:#455a64"></path><path d="M290.13,423.46c0-1.44-.11-3.51-.19-6.18s-.16-5.85-.21-9.58c-5.5-.12-12.22-.28-19.71-.47,0,2.91.08,5.49.11,7.66,0,2.69.07,4.77.09,6.22,0,.69,0,1.23,0,1.61v.39c4.25.54,8.06,1.08,11.19,1.54l2.52.27,6.29.69s0-.19,0-.55S290.16,424.15,290.13,423.46Z" style="fill:#455a64"></path><path d="M299.42,307.06c-3.87-12.66-6.71-14.55-8.26-17.2-.07,5.47-.15,11.13-.24,16.94Z" style="fill:#455a64"></path><path d="M269.32,326.77l-13.12-.35-9.8-.26c-.27,6.74-.52,13.27-.76,19.55l8.92.24,14.62.4C269.2,340,269.25,333.5,269.32,326.77Z" style="fill:#455a64"></path><path d="M290.71,319.68q-.06,3.63-.11,7.2l12.47.41a70.78,70.78,0,0,0-1.89-14c-.57-2.2-1.12-4.15-1.66-5.91l-8.61-.19C290.85,311.3,290.78,315.45,290.71,319.68Z" style="fill:#455a64"></path><path d="M269.64,306.69l-11.79-.31-10.69-.29q-.12,3.23-.24,6.49-.25,6.65-.51,13.07l9.8.25,13.12.36q.06-4.74.13-9.58Q269.55,311.63,269.64,306.69Z" style="fill:#455a64"></path><path d="M290.06,327.27c-5.83-.13-12.7-.3-20.22-.49-.08,6.73-.13,13.27-.16,19.58,7.52.21,14.35.41,20.09.59C289.85,340.61,290,334,290.06,327.27Z" style="fill:#455a64"></path><path d="M290.37,307.19c-5.88-.13-12.74-.3-20.21-.49q-.09,4.94-.18,10-.08,4.85-.13,9.59l20.22.59c0-2.39.07-4.78.12-7.2C290.25,315.44,290.31,311.29,290.37,307.19Z" style="fill:#455a64"></path><path d="M290.76,215.87c.05,1.44.11,3.51.19,6.18,0,.91.06,1.93.08,3,0,.34.05.67.06,1l13,.39c-2.24-6.45-7.23-10.62-12.61-13.27a6.1,6.1,0,0,1-.76,1.27C290.72,214.8,290.74,215.27,290.76,215.87Z" style="fill:#455a64"></path><path d="M290.66,215.88c0-.57,0-1,0-1.38-.06.08-.12.17-.19.25a3.83,3.83,0,0,1-.29.28,9.89,9.89,0,0,1-2.45,3.33,10.24,10.24,0,0,1,3.06,5.16c0-.5,0-1,0-1.47C290.71,219.39,290.68,217.31,290.66,215.88Z" style="fill:#455a64"></path><path d="M249.05,244.19l-17.4-.5c-.22,2-.46,4-.69,6-.2,1.82-.4,3.61-.6,5.36a30.24,30.24,0,0,0,2.19,10l15.68.39C248.52,257.77,248.8,250.64,249.05,244.19Z" style="fill:#455a64"></path><path d="M272.09,244.3l7,.19a7.62,7.62,0,0,1,1.05-.16c-.16-.23-.23-.43-.16-.48a.14.14,0,0,1,.14,0,4.41,4.41,0,0,1-1.33-3.05c0-2.37,1.64-4.47,3.19-6.4a13.73,13.73,0,0,1-1.9-8.18l-7.15-.18c-.2,4.35-.44,9.48-.71,15.3C272.18,242.31,272.14,243.3,272.09,244.3Z" style="fill:#455a64"></path><path d="M261.16,266.29,248.63,266c-.22,6.2-.46,12.74-.72,19.56l11.61.3,10.63.29c.2-6.83.41-13.38.64-19.56Z" style="fill:#455a64"></path><path d="M290.88,212.86c0,.23-.11.45-.17.67a4.6,4.6,0,0,0,.31-.63Z" style="fill:#455a64"></path><path d="M265.86,263.19a13.1,13.1,0,0,1-6.2-2.57,11,11,0,0,1-1.51-1.38,2.22,2.22,0,0,1-.44-.6c.07-.07.78.73,2.17,1.68a13.73,13.73,0,0,0,11.06,2.09c.25-6.32.5-12.23.75-17.62l-12.17-.31-10.09-.28c-.24,6.45-.5,13.58-.78,21.24l12.52.33,9.64.26c0-1.07.08-2.12.12-3.17A13.17,13.17,0,0,1,265.86,263.19Z" style="fill:#455a64"></path><path d="M291.07,226.7c0,1.58.07,3.28.1,5.11.05,3.81.14,8.15.16,12.94v.1c6.78.21,12.32.39,16.07.53-.49-3.65-1.25-8.63-2.41-15.46a24.37,24.37,0,0,0-.76-3.11l-13.14-.3A1.37,1.37,0,0,1,291.07,226.7Z" style="fill:#455a64"></path><path d="M291,253.43c0-2.84,0-5.57,0-8.17l-7.62-.18a3.16,3.16,0,0,1-1,0l-.75,0c.07.09.11.16.08.2s-.26,0-.54-.09a1.05,1.05,0,0,1,.05.19,2.52,2.52,0,0,1,.27.34,5.07,5.07,0,0,1,.22,5.14,3.57,3.57,0,0,1-.47.66c-.14.13-.23.19-.25.17s0-.12.08-.29.19-.4.31-.7a6.11,6.11,0,0,0,.4-2.42,6.33,6.33,0,0,0-.33-1.69,8.38,8.38,0,0,1-4.66,8.49l.5-2.34a3.67,3.67,0,0,1-2.68,1.23,9,9,0,0,1,.88-3.05l-1.81.73a7.25,7.25,0,0,1,1.93-5.09,7.06,7.06,0,0,1,2.22-1.57l-5.7-.15c-.22,5.36-.45,11.22-.67,17.49.35-.09.68-.19,1-.3,1.59-.55,2.49-1.14,2.53-1.06s-.18.21-.58.47a11,11,0,0,1-1.82.94c-.34.14-.72.27-1.13.4,0,1.09-.08,2.18-.11,3.3l19.37.56.17-12.68h0c-5.68-.5-9.85-.95-9.84-1.07S285.25,253,291,253.43Z" style="fill:#455a64"></path><path d="M291.38,253.46l3,.25c7.38.62,13.35,1.23,13.34,1.38a2.91,2.91,0,0,1-.76,0l1.26.09s.41-.71-.79-9.59c-3.75-.06-9.3-.18-16.1-.34C291.36,247.87,291.37,250.61,291.38,253.46Z" style="fill:#455a64"></path><path d="M249.45,243.69l10.09.26,12.17.34c.05-1,.1-2,.14-3,.28-5.81.55-10.94.78-15.29l-4.55-.12-18-.5c-.13,3.78-.28,8.07-.44,12.81C249.59,240,249.52,241.82,249.45,243.69Z" style="fill:#455a64"></path><path d="M234,224.55c4.67.1,10,.23,15.84.38.15-3.58.28-6.69.39-9.24s.21-4.71.28-6.13l0-.85a37.28,37.28,0,0,0-14.89,2.9c-.27,2.09-.61,4.78-1,8C234.43,221.12,234.21,222.79,234,224.55Z" style="fill:#455a64"></path><path d="M248.21,265.93l-15.44-.44a8.68,8.68,0,0,0,.46.85l7.48,12.36-1.22,6.6,8,.2C247.71,278.68,248,272.14,248.21,265.93Z" style="fill:#455a64"></path><path d="M270.65,286.12l19.73.56.25-19.65c-5.77-.13-12.33-.3-19.38-.48C271,272.73,270.84,279.28,270.65,286.12Z" style="fill:#455a64"></path><path d="M246.4,312.56q.14-3.27.25-6.49l-11.47-.32a187,187,0,0,0-4.35,19.51l15.09.37Q246.16,319.21,246.4,312.56Z" style="fill:#455a64"></path><path d="M279.91,209.35a49.39,49.39,0,0,0-5.39-.81,3.31,3.31,0,0,1-.93.13c-.61,0-1.48.09-2.57.12-2.17.08-5.16.11-8.47.1l-8.47-.06c-2,0-3.23,0-3.46-.1,0,.25,0,.53,0,.84,0,1.42-.1,3.48-.18,6.13s-.2,5.66-.32,9.23l18,.47,4.57.12c.15-2.65.29-5,.41-7,.17-2.68.3-4.76.39-6.2.05-.7.09-1.23.11-1.61s.06-.55.06-.55,0,.19,0,.55,0,.92-.07,1.61c-.06,1.44-.16,3.53-.29,6.21-.09,2-.2,4.35-.32,7l7.18.2a14.29,14.29,0,0,1,3-7.3A10.46,10.46,0,0,1,279.91,209.35Z" style="fill:#455a64"></path><path d="M291,244.75c0-4.79-.06-9.13-.08-12.93,0-1.2,0-2.32,0-3.41a10.52,10.52,0,0,1-3.67,6,9.42,9.42,0,0,1-.47,8,5.54,5.54,0,0,1-2.08,2.24l6.33.19Z" style="fill:#455a64"></path><path d="M243.79,420.33c4.93.4,11.73,1,19.23,1.91,2.49.28,4.89.58,7.19.87q0-.14,0-.39c0-.38,0-.92-.06-1.61-.05-1.44-.11-3.53-.19-6.21-.07-2.17-.13-4.76-.2-7.67L252,406.77l-8.72-.24c0,1-.09,2-.12,2.9-.12,2.65-.22,4.71-.28,6.13q-.06,1-.09,1.59c0,.36-.05.54-.05.54s0-.18,0-.54,0-.91,0-1.59c.05-1.43.11-3.49.19-6.13,0-.9.06-1.88.09-2.91l-8.15-.22c1.34,9.93,1.68,13.48,1.68,13.48l1.06.11.36,0C239.33,420,241.32,420.13,243.79,420.33Z" style="fill:#455a64"></path><path d="M247.43,286l-8-.22L236.59,301c-.34,1.08-.78,2.53-1.28,4.3l11.36.28C246.93,298.85,247.19,292.31,247.43,286Z" style="fill:#455a64"></path><path d="M290,367.43c-.06,7.06-.1,13.68-.1,19.72l7.87.26c1.06-6.3,2.07-13,2.93-19.77C298,367.6,294.38,367.53,290,367.43Z" style="fill:#455a64"></path><path d="M243,406c.17-5,.39-11.47.65-19.12l0-.54L232,386c1.23,8.34,2.14,14.82,2.81,19.77Z" style="fill:#455a64"></path><path d="M289.56,367.42c-5.62-.12-12.39-.28-19.92-.47,0,7.05.06,13.61.11,19.6,7.55.21,14.28.41,19.77.59C289.5,381.1,289.51,374.48,289.56,367.42Z" style="fill:#455a64"></path><path d="M244.45,365.77c.22-6.15.46-12.69.72-19.56l-16.59-.47a133.8,133.8,0,0,0,.45,19.64Z" style="fill:#455a64"></path><path d="M243.71,385.84c.22-5.9.46-12.45.72-19.56l-15.35-.43c.18,1.73.39,3.46.66,5.19.81,5.36,1.53,10.17,2.17,14.5Z" style="fill:#455a64"></path><path d="M252.9,366.51l-8.06-.22c-.28,7.11-.53,13.66-.76,19.56l7.18.19,18.1.5c-.08-6-.14-12.56-.17-19.6Z" style="fill:#455a64"></path><path d="M269.37,387l-18.13-.47-7.18-.2c0,.18,0,.37,0,.55-.32,7.64-.58,14.09-.79,19.11l8.71.23,17.76.48c-.1-4.22-.19-9.13-.28-14.67C269.42,390.44,269.39,388.75,269.37,387Z" style="fill:#455a64"></path><path d="M290.59,327.28c-.1,6.76-.2,13.34-.29,19.69,5.17.16,9.42.3,12.43.41a179,179,0,0,0,.35-19.84Z" style="fill:#455a64"></path><path d="M290.29,347.35c-.07,4.65-.14,9.18-.2,13.56,0,2.09,0,4.13-.06,6.15,4.37.13,8,.26,10.72.36.84-6.65,1.53-13.35,2-19.82C299.7,347.56,295.46,347.47,290.29,347.35Z" style="fill:#455a64"></path><path d="M269.17,346.85l-14.62-.38-8.93-.24c-.27,6.86-.52,13.4-.76,19.55l8,.21,16.27.45C269.16,360.25,269.15,353.69,269.17,346.85Z" style="fill:#455a64"></path><path d="M245.18,345.7c.24-6.28.48-12.82.72-19.56l-15.15-.43a172.68,172.68,0,0,0-2.15,19.58Z" style="fill:#455a64"></path><path d="M289.76,347.34c-5.73-.13-12.56-.29-20.09-.48,0,6.84,0,13.4,0,19.59l19.92.59c0-2,0-4.05.05-6.14C289.65,356.53,289.7,352,289.76,347.34Z" style="fill:#455a64"></path><path d="M233.57,224.54c.24-1.78.47-3.45.69-5,.44-3.15.83-5.79,1.14-7.82a27.37,27.37,0,0,0-9.61,7c-1.73,2-3.36,3.83-4.89,5.54C224.09,224.33,228.4,224.42,233.57,224.54Z" style="fill:#455a64"></path><path d="M230.45,249.64q.35-3,.69-6c-6.84-.21-12.63-.39-16.9-.54L225,255.4l.95,1.07,4.2-4.4C230.26,251.26,230.35,250.45,230.45,249.64Z" style="fill:#455a64"></path><path d="M214,242.86c4.3.08,10.21.21,17.2.38.8-6.76,1.6-13,2.32-18.31-5.26-.16-9.63-.3-12.82-.42-5.83,6.5-9.94,10.73-11.28,12.09l-.49.5Z" style="fill:#455a64"></path><path d="M231.71,243.25c5.25.12,11.11.27,17.36.43.07-1.87.14-3.71.21-5.47.2-4.74.38-9,.53-12.8L233.94,225C233.27,230.26,232.5,236.49,231.71,243.25Z" style="fill:#455a64"></path><path d="M269.84,326.78h-.52c-.07,6.73-.12,13.27-.14,19.58h.5C269.71,340.05,269.76,333.51,269.84,326.78Z" style="fill:#263238"></path><path d="M270.93,262.86c0,1.05-.08,2.1-.12,3.17h.46c0-1.12.07-2.21.11-3.3Z" style="fill:#263238"></path><path d="M270.79,266.54c-.23,6.18-.44,12.73-.64,19.56l.5,0c.19-6.84.39-13.39.6-19.57Z" style="fill:#263238"></path><path d="M270.14,286.61c-.18,6.3-.35,12.84-.49,19.57h.52q.21-10.1.47-19.57Z" style="fill:#263238"></path><path d="M273.56,212.32c0-.69.05-1.23.07-1.61s0-.55,0-.55,0,.18-.06.55-.06.91-.11,1.61c-.09,1.44-.22,3.52-.39,6.2-.12,2-.26,4.35-.41,7H273c.12-2.65.23-5,.32-7C273.4,215.85,273.5,213.76,273.56,212.32Z" style="fill:#263238"></path><path d="M271.71,244.29h.38c.05-1,.09-2,.13-3,.27-5.82.51-10.95.71-15.3h-.3c-.23,4.35-.5,9.48-.78,15.29C271.81,242.29,271.76,243.29,271.71,244.29Z" style="fill:#263238"></path><path d="M270.16,306.7h-.52q-.09,4.94-.18,10-.07,4.85-.13,9.58l.52,0q.06-4.74.13-9.59Q270.07,311.64,270.16,306.7Z" style="fill:#263238"></path><path d="M270.94,262.41l.46-.12c.22-6.27.45-12.13.67-17.49h-.38C271.44,250.18,271.19,256.09,270.94,262.41Z" style="fill:#263238"></path><path d="M269.67,346.86h-.5c0,6.84,0,13.4,0,19.59h.46C269.63,360.26,269.64,353.7,269.67,346.86Z" style="fill:#263238"></path><path d="M269.19,366.94c0,7,.09,13.61.17,19.6h.39c-.05-6-.09-12.55-.11-19.6Z" style="fill:#263238"></path><path d="M270.22,421.11c0-1.45-.05-3.53-.09-6.22,0-2.17-.07-4.75-.11-7.66h-.29c.07,2.91.13,5.5.2,7.67.08,2.68.14,4.77.19,6.21,0,.69.05,1.23.06,1.61q0,.25,0,.39h0v-.39C270.23,422.34,270.23,421.8,270.22,421.11Z" style="fill:#263238"></path><path d="M269.76,387h-.39c0,1.72.05,3.41.07,5,.09,5.54.18,10.45.28,14.67h.3c-.06-4.22-.13-9.14-.21-14.69C269.79,390.44,269.77,388.75,269.76,387Z" style="fill:#263238"></path><path d="M290.92,306.8c.09-5.81.17-11.47.24-16.94a8.09,8.09,0,0,1-.51-1c-.09,5.78-.18,11.78-.27,17.94Z" style="fill:#263238"></path><path d="M290.91,307.2h-.54c-.06,4.1-.12,8.25-.18,12.48-.05,2.42-.09,4.81-.12,7.2h.53q0-3.57.11-7.2C290.78,315.45,290.85,311.3,290.91,307.2Z" style="fill:#263238"></path><path d="M291,244.75v.09h.37v-.1c0-4.79-.11-9.13-.16-12.94,0-1.83-.06-3.53-.1-5.11a11,11,0,0,1-.22,1.71c0,1.09,0,2.21,0,3.41C290.9,235.62,291,240,291,244.75Z" style="fill:#263238"></path><path d="M291,253.43l.41,0c0-2.85,0-5.59-.05-8.19H291C291,247.86,291,250.59,291,253.43Z" style="fill:#263238"></path><path d="M290.76,215.87c0-.6,0-1.07-.05-1.44l-.06.07c0,.36,0,.81,0,1.38,0,1.43,0,3.51.09,6.17,0,.47,0,1,0,1.47A11.32,11.32,0,0,1,291,225c0-1.05,0-2.07-.08-3C290.87,219.38,290.81,217.31,290.76,215.87Z" style="fill:#263238"></path><path d="M290.59,327.28h-.53c-.11,6.75-.21,13.34-.29,19.68l.53,0C290.39,340.62,290.49,334,290.59,327.28Z" style="fill:#263238"></path><path d="M290.23,423.45c0-1.43-.05-3.51-.09-6.17s-.1-5.85-.12-9.58h-.29c0,3.73.13,6.95.21,9.58s.15,4.74.19,6.18c0,.69.05,1.22.06,1.6s0,.55,0,.55,0-.19,0-.55S290.24,424.14,290.23,423.45Z" style="fill:#263238"></path><path d="M290,367.43h-.46c-.05,7.06-.06,13.68,0,19.72h.4C289.92,381.11,290,374.49,290,367.43Z" style="fill:#263238"></path><path d="M289.92,387.51h-.4c0,2.45,0,4.82,0,7.08,0,4.72.11,9,.16,12.75h.3c0-3.77-.1-8-.09-12.76Q289.92,391.19,289.92,387.51Z" style="fill:#263238"></path><path d="M290.29,347.35h-.53c-.06,4.65-.11,9.19-.15,13.56,0,2.09,0,4.13-.05,6.14l.47,0c0-2,0-4.06.06-6.15C290.15,356.53,290.22,352,290.29,347.35Z" style="fill:#263238"></path><path d="M246.4,326.16l-.5,0c-.24,6.74-.48,13.28-.72,19.56h.46C245.88,339.43,246.13,332.9,246.4,326.16Z" style="fill:#263238"></path><path d="M249.07,243.68h.38c.07-1.87.14-3.71.2-5.46.16-4.74.31-9,.44-12.81h-.28c-.15,3.78-.33,8.06-.53,12.8C249.21,240,249.14,241.81,249.07,243.68Z" style="fill:#263238"></path><path d="M247.43,286c-.24,6.31-.5,12.85-.76,19.56l.51,0c.24-6.71.48-13.26.72-19.56Z" style="fill:#263238"></path><path d="M248.21,265.93c-.24,6.21-.5,12.75-.76,19.57h.46c.26-6.82.5-13.36.72-19.56Z" style="fill:#263238"></path><path d="M250.22,215.69c-.11,2.55-.24,5.66-.39,9.24h.27c.12-3.57.23-6.68.32-9.23s.14-4.71.18-6.13c0-.31,0-.59,0-.84l-.05,0h0l0,.85C250.43,211,250.34,213,250.22,215.69Z" style="fill:#263238"></path><path d="M249.05,244.19c-.25,6.45-.53,13.58-.82,21.24h.42c.28-7.66.54-14.79.78-21.24Z" style="fill:#263238"></path><path d="M247.16,306.09l-.51,0q-.12,3.23-.25,6.49-.24,6.65-.48,13.07l.49,0q.26-6.43.51-13.07Q247,309.31,247.16,306.09Z" style="fill:#263238"></path><path d="M244.06,386.36h-.37l0,.54c-.26,7.65-.48,14.1-.65,19.12h.23c.21-5,.47-11.47.79-19.11C244.05,386.73,244.05,386.54,244.06,386.36Z" style="fill:#263238"></path><path d="M244.43,366.28c-.26,7.11-.5,13.66-.72,19.56h.37c.23-5.9.48-12.45.76-19.56Z" style="fill:#263238"></path><path d="M245.17,346.21c-.26,6.87-.5,13.41-.72,19.56h.41c.24-6.15.49-12.69.76-19.55Z" style="fill:#263238"></path><path d="M242.91,409.43c-.08,2.64-.14,4.7-.19,6.13q0,1,0,1.59c0,.36,0,.54,0,.54s0-.18.05-.54,0-.91.09-1.59c.06-1.42.16-3.48.28-6.13,0-.89.08-1.88.12-2.9H243C243,407.55,242.94,408.53,242.91,409.43Z" style="fill:#263238"></path><path d="M233.57,224.54H234c.22-1.76.44-3.43.63-5,.42-3.19.76-5.88,1-8l-.25.11c-.31,2-.7,4.67-1.14,7.82C234,221.09,233.81,222.76,233.57,224.54Z" style="fill:#263238"></path><path d="M231.65,243.69h-.51q-.34,2.91-.69,6c-.1.81-.19,1.62-.28,2.43l.1-.1s0,1.25.09,3.08c.2-1.75.4-3.54.6-5.36C231.19,247.66,231.43,245.65,231.65,243.69Z" style="fill:#263238"></path><path d="M233.94,225l-.43,0c-.72,5.32-1.52,11.55-2.32,18.31h.52C232.5,236.49,233.27,230.26,233.94,225Z" style="fill:#263238"></path><path d="M291.09,226.51l13.14.3-.15-.38-13-.39C291.09,226.19,291.1,226.35,291.09,226.51Z" style="fill:#263238"></path><path d="M233.51,224.93l.43,0,15.87.46h.28l18,.5,4.55.12h.3l7.15.18c0-.17,0-.34.05-.5l-7.18-.2h-.29l-4.57-.12-18-.47h-.27c-5.82-.15-11.17-.28-15.84-.38h-.42c-5.17-.12-9.48-.21-12.67-.26l-.21.23C223.88,224.63,228.25,224.77,233.51,224.93Z" style="fill:#263238"></path><path d="M259.52,244.48l12.17.31h.38l5.7.15a7.13,7.13,0,0,1,1.32-.46l-7-.19h-.38L259.54,244l-10.09-.26h-.38c-6.25-.16-12.11-.31-17.36-.43h-.52c-7-.17-12.9-.3-17.2-.38l.25.28c4.27.15,10.06.33,16.9.54h.51l17.4.5h.38Z" style="fill:#263238"></path><path d="M281.57,245l.75,0a4,4,0,0,1-1.11-.39A3,3,0,0,1,281.57,245Z" style="fill:#263238"></path><path d="M291,244.84l-6.33-.19a3.71,3.71,0,0,1-.87.36,3.07,3.07,0,0,1-.42.07l7.62.18h.37c6.8.16,12.35.28,16.1.34l0-.23c-3.75-.14-9.29-.32-16.07-.53Z" style="fill:#263238"></path><path d="M248.63,266l12.53.34,9.63.25h.46c7.05.18,13.61.35,19.38.48v-.43L271.27,266h-.46l-9.64-.26-12.52-.33h-.42L232.55,265c.07.16.14.3.22.45l15.44.44Z" style="fill:#263238"></path><path d="M247.9,286l11.6.31,10.64.28h.5c7.23.19,13.91.35,19.73.49v-.43l-19.73-.56-.5,0-10.63-.29-11.61-.3h-.46l-8-.2-.09.48,8,.22Z" style="fill:#263238"></path><path d="M247.16,306.09l10.69.29,11.79.31h.52c7.47.19,14.33.36,20.21.49h.54l8.61.19c0-.11-.06-.22-.1-.33l-8.5-.26-.54,0-20.21-.59h-.52l-11.78-.32-10.69-.28-.51,0-11.36-.28c-.05.15-.09.31-.13.47l11.47.32Z" style="fill:#263238"></path><path d="M246.4,326.16l9.8.26,13.12.35h.52c7.52.19,14.39.36,20.22.49h.53l12.49.26a2.09,2.09,0,0,1,0-.25l-12.47-.41h-.53l-20.22-.59-.52,0-13.12-.36-9.8-.25-.49,0-15.09-.37c0,.15-.05.3-.08.45l15.15.43Z" style="fill:#263238"></path><path d="M245.17,346.21l.45,0,8.93.24,14.62.38h.5c7.53.19,14.36.35,20.09.48h.53c5.17.12,9.41.21,12.43.25v-.22c-3-.11-7.26-.25-12.43-.41l-.53,0c-5.74-.18-12.57-.38-20.09-.59h-.5l-14.62-.4-8.92-.24h-.46l-16.58-.41c0,.15,0,.3,0,.45Z" style="fill:#263238"></path><path d="M244.43,366.28h.41l8.06.22,16.29.43h.45c7.53.19,14.3.35,19.92.47H290c4.36.1,8,.17,10.7.21l0-.22c-2.71-.1-6.35-.23-10.72-.36l-.47,0-19.92-.59h-.46L252.91,366l-8-.21h-.41L229,365.38c0,.16,0,.31.05.47Z" style="fill:#263238"></path><path d="M243.69,386.35h.37l7.18.2,18.13.47h.39l19.76.46h.4l7.83.16a2.34,2.34,0,0,0,0-.26l-7.87-.26h-.4c-5.49-.18-12.22-.38-19.77-.59h-.39l-18.1-.5-7.18-.19h-.37l-11.8-.3.07.49Z" style="fill:#263238"></path><path d="M243,406.52h.23l8.72.24,17.78.46H270c7.49.19,14.21.35,19.71.47H290l4,.09c0-.11,0-.21.07-.32l-4.1-.13h-.3l-19.7-.59h-.3L252,406.25l-8.71-.23H243l-8.23-.21.06.5Z" style="fill:#263238"></path><path d="M254.08,208.83l8.47.06c3.31,0,6.3,0,8.47-.1,1.09,0,2-.08,2.57-.12a3.31,3.31,0,0,0,.93-.13h0a1.85,1.85,0,0,0-.64-.06v.05l-19.38-.08h-.43c-1.09,0-2,.08-2.57.13a3.44,3.44,0,0,0-.94.12h0l.05,0C250.85,208.79,252.12,208.81,254.08,208.83Z" style="fill:#263238"></path><path d="M265.93,262.67a14,14,0,0,1-6.05-2.35c-1.39-.95-2.1-1.75-2.17-1.68a2.22,2.22,0,0,0,.44.6,11,11,0,0,0,1.51,1.38,13,13,0,0,0,11.27,2.24l.45-.12c.41-.13.79-.26,1.13-.4a11,11,0,0,0,1.82-.94c.4-.26.6-.44.58-.47s-.94.51-2.53,1.06c-.3.11-.63.21-1,.3l-.46.12A14,14,0,0,1,265.93,262.67Z" style="fill:#263238"></path><path d="M307.72,255.09c0-.15-6-.76-13.34-1.38l-3-.25-.41,0c-5.72-.45-10-.7-10-.58s4.16.57,9.84,1.07l3.5.31c5.84.49,10.8.83,12.62.88A2.91,2.91,0,0,0,307.72,255.09Z" style="fill:#263238"></path><path d="M274.19,202.55c.6,2.27,3.08,4.22,6.66,3.8a9.87,9.87,0,0,0-.94,3,10.46,10.46,0,0,0,3.23,9.08,14.29,14.29,0,0,0-3,7.3c0,.16,0,.33-.05.5a13.73,13.73,0,0,0,1.9,8.18c-1.55,1.93-3.17,4-3.19,6.4a4.41,4.41,0,0,0,1.33,3.05,3.58,3.58,0,0,1,.8.56l.29.25a4,4,0,0,0,1.11.39,3.16,3.16,0,0,0,1,0,3.07,3.07,0,0,0,.42-.07,3.71,3.71,0,0,0,.87-.36,5.54,5.54,0,0,0,2.08-2.24,9.42,9.42,0,0,0,.47-8,10.52,10.52,0,0,0,3.67-6,11,11,0,0,0,.22-1.71,1.37,1.37,0,0,0,0-.19c0-.16,0-.32,0-.47,0-.34,0-.67-.06-1a11.32,11.32,0,0,0-.25-1.51,10.24,10.24,0,0,0-3.06-5.16,9.89,9.89,0,0,0,2.45-3.33,6,6,0,0,1-1.88,1.28,5.05,5.05,0,0,1-1.74.41,2.45,2.45,0,0,1-.49,0c-.11,0-.17,0-.17,0s.06,0,.17-.06.26,0,.46-.09a6.24,6.24,0,0,0,3.58-2.09,5.26,5.26,0,0,0,.61-.9c.06-.22.13-.44.17-.67a10.42,10.42,0,0,0,0-4.2,6.39,6.39,0,0,0-1.4-2,11.46,11.46,0,0,0-1.94-1.31s.06,0,.17,0a2.29,2.29,0,0,1,.47.13,4.9,4.9,0,0,1,1.55.9,5.54,5.54,0,0,1,.72.73,9.6,9.6,0,0,0-2.36-3.66,15.76,15.76,0,0,0-1.57-15.29C285,194.63,281.5,200.79,274.19,202.55Zm11.47,16.11c0,.14-.57.12-1.2.18s-1.16.14-1.21,0,.44-.48,1.17-.53S285.7,218.52,285.66,218.66Zm-1.82,15.82c-1-.16-1.91-.17-1.93-.32a2.89,2.89,0,0,1,2-.2c1.12.17,1.92.64,1.86.77S284.88,234.63,283.84,234.48Zm-.57-30.34a3.11,3.11,0,0,1,2.09-.12c0,.15-.89.31-1.95.62s-1.9.65-2,.52S282.14,204.46,283.27,204.14Z" style="fill:#263238"></path><path d="M258.53,161.11a17.49,17.49,0,0,0,1.76,4.53,16.26,16.26,0,0,0,1.6,2.38,16.45,16.45,0,0,0,2.13,2.22,17.9,17.9,0,0,0,2.52,1.76,16.84,16.84,0,0,0,2.61,1.2,17.58,17.58,0,0,0,4.75,1l.44,0,0-3.36s-13.49-1.18-16.33-13.58c0,.15,0,.33,0,.54A18.28,18.28,0,0,0,258.53,161.11Z" style="fill:#b78876"></path><path d="M273.89,208.48l.23-5.91-.07,0,.2-20.19,0-.05a12.4,12.4,0,0,1,.07-2.92l.05-4.83h-.45a16.93,16.93,0,0,1-10.2-4,17.44,17.44,0,0,1-2.19-2.29,16.34,16.34,0,0,1-1.62-2.47,16.54,16.54,0,0,1-1.7-4.68,14.61,14.61,0,0,1-.31-3.34,8.34,8.34,0,0,1,.06-.91.25.25,0,0,0,0-.08s0,0,0-.05l-.08.08c-.79,2-2.17,6.21-1.16,9.6l-12.26,3.39-1.36,1.31c0,5.8.09,12.36.38,16.42.6,8.61,9.08,9.44,9.08,9.44a20.55,20.55,0,0,0,11.09-4s-2.46,6.36-10.88,6.09l-.21-2.12s.69,9.1.62,11.39h1.37l19.38.08Zm-27.83-33.81a1.1,1.1,0,0,1,0-2.2,1.1,1.1,0,0,1,0,2.2Zm2.1-2.59c-.12.16-1-.42-2.15-.33s-1.95.78-2.09.64,0-.34.39-.66A2.77,2.77,0,0,1,246,171a2.74,2.74,0,0,1,1.73.44C248.07,171.75,248.22,172,248.16,172.08Zm2.11,10.34a.73.73,0,0,1-.5-.43,1.93,1.93,0,0,1,.1-1.25c.23-.79.47-1.62.73-2.49a44.37,44.37,0,0,1,2.16-6.28,43.37,43.37,0,0,1-1.68,6.44c-.27.86-.53,1.68-.77,2.47a1.69,1.69,0,0,0-.16,1c.06.21.34.25.64.27a7.21,7.21,0,0,1,1.89.23,6.88,6.88,0,0,1-1.9.13A1.9,1.9,0,0,1,250.27,182.42Zm4.52,4.11a3.17,3.17,0,0,1-3.85-1.08c2.36,0,6.74-2.84,5.58-2C256.52,183.42,257.25,185.43,254.79,186.53Zm3.73-12a1.1,1.1,0,0,1,0-2.2,1.1,1.1,0,0,1,0,2.2ZM261,172c-.12.16-1-.42-2.15-.33s-1.95.78-2.09.64.05-.35.39-.66a2.78,2.78,0,0,1,1.65-.7,2.81,2.81,0,0,1,1.73.45C260.9,171.61,261.05,171.87,261,172Z" style="fill:#b78876"></path><path d="M246,172.47a1.1,1.1,0,1,0,1.09,1.09A1.09,1.09,0,0,0,246,172.47Z" style="fill:#263238"></path><path d="M247.69,171.48A2.74,2.74,0,0,0,246,171a2.77,2.77,0,0,0-1.65.69c-.35.32-.45.6-.39.66s.93-.56,2.09-.64,2,.49,2.15.33S248.07,171.75,247.69,171.48Z" style="fill:#263238"></path><path d="M258.5,172.34a1.1,1.1,0,1,0,1.08,1.09A1.09,1.09,0,0,0,258.5,172.34Z" style="fill:#263238"></path><path d="M260.52,171.35a2.81,2.81,0,0,0-1.73-.45,2.78,2.78,0,0,0-1.65.7c-.34.31-.45.59-.39.66s.93-.56,2.09-.64,2,.49,2.15.33S260.9,171.61,260.52,171.35Z" style="fill:#263238"></path><path d="M250.79,182.1c-.3,0-.58-.06-.64-.27a1.69,1.69,0,0,1,.16-1c.24-.79.5-1.61.77-2.47a43.37,43.37,0,0,0,1.68-6.44,44.37,44.37,0,0,0-2.16,6.28c-.26.87-.5,1.7-.73,2.49a1.93,1.93,0,0,0-.1,1.25.73.73,0,0,0,.5.43,1.9,1.9,0,0,0,.51,0,6.88,6.88,0,0,0,1.9-.13A7.21,7.21,0,0,0,250.79,182.1Z" style="fill:#263238"></path><path d="M250.94,185.45a3.17,3.17,0,0,0,3.85,1.08c2.46-1.1,1.73-3.11,1.73-3.11C257.68,182.61,253.3,185.43,250.94,185.45Z" style="fill:#fff"></path><path d="M263.61,193.08a20.55,20.55,0,0,1-11.09,4l.21,2.12C261.15,199.44,263.61,193.08,263.61,193.08Z" style="fill:#a36957"></path><path d="M256.68,166.49c-1-3.39.37-7.63,1.16-9.6l.08-.08s0,0,0,.05a.75.75,0,0,1,.05-.23s0,.11,0,.31,0,.23,0,.37c2.84,12.4,16.33,13.58,16.33,13.58l0,3.36a17.56,17.56,0,0,0,2.85-.07c.39,0,.69-.09.9-.11s.32,0,.32,0a1.2,1.2,0,0,1-.3.11,8.49,8.49,0,0,1-.89.2,14.59,14.59,0,0,1-2.89.22l-.05,4.83a7.32,7.32,0,0,1,.24-.92,3.64,3.64,0,0,1,2.73-2.49,3.05,3.05,0,0,1,3.22,2.46,3.78,3.78,0,0,1-1.81,3.79,4.7,4.7,0,0,1-3,.57c0,.06,0,.1,0,.16a2,2,0,0,0,.28,1.4,2,2,0,0,0,3.05.41,2,2,0,0,0,.65-1.27,4.21,4.21,0,0,0-.2-1.4s.56.4.57,1.42a2.28,2.28,0,0,1-.69,1.6,2.39,2.39,0,0,1-3.79-.51,2.28,2.28,0,0,1-.23-1.73.69.69,0,0,1,0-.13,5.6,5.6,0,0,1-1-.28l-.1-.11-.2,20.19.07,0,.07,0c7.31-1.76,10.76-7.92,12.36-14.36.1-.43.2-.86.29-1.29-.06.12-.12.26-.19.38a16.94,16.94,0,0,1-1.54,2.47,3.65,3.65,0,0,1-.71.81c-.08-.06.88-1.25,1.92-3.44a19.7,19.7,0,0,0,.88-2.16,59.22,59.22,0,0,0,.6-11.06l0-.59a20.93,20.93,0,0,0-1.6-4.47c-1.08-2.18-2.05-3.35-2-3.41a3.78,3.78,0,0,1,.71.79,17.49,17.49,0,0,1,1.59,2.45,19.8,19.8,0,0,1,1.21,2.74l0-1s0,0,0,0h0v0c0-.06,0-.14,0-.28h0a33.8,33.8,0,0,0-.56-3.49c-4.77-17.93-20.2-21.12-23.24-21.09-3.27,0-9-1.75-17.24,7.22S243,171.21,243,171.21l0,0,1.36-1.31Z" style="fill:#263238"></path><path d="M280.59,244.82a2.23,2.23,0,0,1-.45-.49,7.62,7.62,0,0,0-1.05.16,7.38,7.38,0,0,0-3.54,2,7.25,7.25,0,0,0-1.93,5.09l1.81-.73a9,9,0,0,0-.88,3.05,3.67,3.67,0,0,0,2.68-1.23l-.5,2.34a8.38,8.38,0,0,0,4.66-8.49,5.61,5.61,0,0,0-.28-.68c-.28-.58-.53-.9-.47-1s.25.11.52.43a1.05,1.05,0,0,0-.05-.19A2.61,2.61,0,0,1,280.59,244.82Z" style="fill:#263238"></path><path d="M280,243.85c-.07.05,0,.25.16.48a2.23,2.23,0,0,0,.45.49,2.61,2.61,0,0,0,.52.33c.28.13.5.17.54.09s0-.11-.08-.2a3,3,0,0,0-.36-.37l-.29-.25a3.58,3.58,0,0,0-.8-.56A.14.14,0,0,0,280,243.85Z" style="fill:#FF725E"></path><path d="M283.91,234a2.89,2.89,0,0,0-2,.2c0,.15.89.16,1.93.32s1.87.39,1.93.25S285,234.13,283.91,234Z" style="fill:#FF725E"></path><path d="M283.25,218.85c.05.13.58,0,1.21,0s1.17,0,1.2-.18-.51-.4-1.24-.34S283.19,218.72,283.25,218.85Z" style="fill:#FF725E"></path><path d="M283.41,204.64c1.06-.31,1.95-.47,1.95-.62a3.11,3.11,0,0,0-2.09.12c-1.13.32-1.9.9-1.83,1S282.35,204.94,283.41,204.64Z" style="fill:#FF725E"></path><path d="M277.22,174.38a8.49,8.49,0,0,0,.89-.2,1.2,1.2,0,0,0,.3-.11s-.12,0-.32,0-.51.08-.9.11a17.56,17.56,0,0,1-2.85.07l-.44,0a17.58,17.58,0,0,1-4.75-1,16.84,16.84,0,0,1-2.61-1.2,17.9,17.9,0,0,1-2.52-1.76,16.45,16.45,0,0,1-2.13-2.22,16.26,16.26,0,0,1-1.6-2.38,17.49,17.49,0,0,1-1.76-4.53,18.28,18.28,0,0,1-.47-3.26c0-.21,0-.39,0-.54s0-.27,0-.37,0-.31,0-.31a.75.75,0,0,0-.05.23.25.25,0,0,1,0,.08,8.34,8.34,0,0,0-.06.91,14.61,14.61,0,0,0,.31,3.34,16.54,16.54,0,0,0,1.7,4.68,16.34,16.34,0,0,0,1.62,2.47,17.44,17.44,0,0,0,2.19,2.29,16.76,16.76,0,0,0,2.61,1.81,17,17,0,0,0,7.59,2.16h.45A14.59,14.59,0,0,0,277.22,174.38Z" style="fill:#263238"></path><path d="M284.92,166.22a3.78,3.78,0,0,0-.71-.79c-.08.06.89,1.23,2,3.41a20.93,20.93,0,0,1,1.6,4.47,20.53,20.53,0,0,1,.59,4.65,21.26,21.26,0,0,1-1.17,7,19.7,19.7,0,0,1-.88,2.16c-1,2.19-2,3.38-1.92,3.44a3.65,3.65,0,0,0,.71-.81,16.94,16.94,0,0,0,1.54-2.47c.07-.12.13-.26.19-.38a19.77,19.77,0,0,0,1.29-14.2c-.12-.45-.27-.88-.41-1.29a19.8,19.8,0,0,0-1.21-2.74A17.49,17.49,0,0,0,284.92,166.22Z" style="fill:#263238"></path><path d="M289.76,206.41a4.9,4.9,0,0,0-1.55-.9,2.29,2.29,0,0,0-.47-.13c-.11,0-.17,0-.17,0a11.46,11.46,0,0,1,1.94,1.31,6.39,6.39,0,0,1,1.4,2l0,.07a5.55,5.55,0,0,1,.43,3,5.84,5.84,0,0,1-.35,1.19,4.6,4.6,0,0,1-.31.63,5.26,5.26,0,0,1-.61.9,6.24,6.24,0,0,1-3.58,2.09c-.2,0-.36.06-.46.09s-.17,0-.17.06.06,0,.17,0a2.45,2.45,0,0,0,.49,0,5.05,5.05,0,0,0,1.74-.41,6,6,0,0,0,1.88-1.28,3.83,3.83,0,0,0,.29-.28c.07-.08.13-.17.19-.25l.06-.07a6.1,6.1,0,0,0,.76-1.27,5.66,5.66,0,0,0,.41-1.38,5.92,5.92,0,0,0-1.4-4.64A5.54,5.54,0,0,0,289.76,206.41Z" style="fill:#263238"></path><path d="M280.64,244.91c-.06.06.19.38.47,1a5.61,5.61,0,0,1,.28.68,6.33,6.33,0,0,1,.33,1.69,6.11,6.11,0,0,1-.4,2.42c-.12.3-.23.54-.31.7s-.11.27-.08.29.11,0,.25-.17a3.57,3.57,0,0,0,.47-.66,5.07,5.07,0,0,0-.22-5.14,2.52,2.52,0,0,0-.27-.34C280.89,245,280.67,244.88,280.64,244.91Z" style="fill:#263238"></path><path d="M275.34,182.79c.3-.87.87-1.14.88-1.09a6.25,6.25,0,0,0-.53,1.14,4.7,4.7,0,0,0,3-.57,3.78,3.78,0,0,0,1.81-3.79,3.05,3.05,0,0,0-3.22-2.46,3.64,3.64,0,0,0-2.73,2.49,7.32,7.32,0,0,0-.24.92,12.4,12.4,0,0,0-.07,2.92l0,.05.1.11A5.6,5.6,0,0,0,275.34,182.79Zm2-5.11a1.55,1.55,0,0,1,1.31.22,1.78,1.78,0,0,1,.58,1.51,2.44,2.44,0,0,1-.54,1.47,1.83,1.83,0,0,1-1.13.64c-.76.09-1.13-.31-1.06-.36s.42.09,1-.09a1.74,1.74,0,0,0,1.12-1.68,1.32,1.32,0,0,0-.31-1,1.18,1.18,0,0,0-.85-.23c-.58.07-1,.24-1,.14S276.6,177.9,277.29,177.68Z" style="fill:#b78876"></path><path d="M277.37,178.13a1.18,1.18,0,0,1,.85.23,1.32,1.32,0,0,1,.31,1,1.74,1.74,0,0,1-1.12,1.68c-.54.18-.92,0-1,.09s.3.45,1.06.36a1.83,1.83,0,0,0,1.13-.64,2.44,2.44,0,0,0,.54-1.47,1.78,1.78,0,0,0-.58-1.51,1.55,1.55,0,0,0-1.31-.22c-.69.22-1,.52-.94.59S276.79,178.2,277.37,178.13Z" style="fill:#a36957"></path><path d="M275.34,182.79a.69.69,0,0,0,0,.13,2.28,2.28,0,0,0,.23,1.73,2.39,2.39,0,0,0,3.79.51,2.28,2.28,0,0,0,.69-1.6c0-1-.55-1.47-.57-1.42a4.21,4.21,0,0,1,.2,1.4,2,2,0,0,1-.65,1.27,2,2,0,0,1-3.05-.41,2,2,0,0,1-.28-1.4c0-.06,0-.1,0-.16a6.25,6.25,0,0,1,.53-1.14S275.64,181.92,275.34,182.79Z" style="fill:#FF725E"></path><path d="M253.64,421.72h0c2.9.31,6,.66,9.28,1,7.49.87,14.26,1.73,19.16,2.38l1.81.23,4,.52,1.58.18a2,2,0,0,0,.56,0,3,3,0,0,0-.54-.13l-1.57-.28c-1-.18-2.37-.4-4-.65l-1.77-.27-.75-.11c-3.13-.46-6.94-1-11.19-1.54h0c-2.3-.29-4.7-.59-7.19-.87-7.5-.87-14.3-1.51-19.23-1.91-2.47-.2-4.46-.34-5.84-.42l-.36,0-1.23-.06a2.64,2.64,0,0,0-.56,0,2.3,2.3,0,0,0,.55.1l1.58.18.27,0,5.56.56C246.52,421,249.9,421.32,253.64,421.72Z" style="fill:#263238"></path><path d="M224.17,207.43s-13.61-2.61-33.17-20.37-29.18-41.82-31.51-41.64-12.64-4.25-30.79,38.39-10.26,52.2-6.41,52,29.79-8.21,46.17-6.82,37.61,9.31,37.61,9.31Z" style="fill:#FF725E"></path><path d="M224.17,207.43s-13.61-2.61-33.17-20.37-29.18-41.82-31.51-41.64-12.64-4.25-30.79,38.39-10.26,52.2-6.41,52,29.79-8.21,46.17-6.82,37.61,9.31,37.61,9.31Z" style="fill:#fff;opacity:0.4"></path><path d="M253.56,231.5l-4.37,8.9-2,4a11.44,11.44,0,0,1-14.78,5.49l-29.28-9.27,15.79-39,29.41,14.61A11.47,11.47,0,0,1,253.56,231.5Z" style="fill:#FF725E"></path><path d="M237.24,246l-8.73,18.37-4.66-1.15-29.47,25.4-8.9-16.27s17.61-8.19,20.73-14.64-.74-7.79-.74-7.79l8.13-9.77Z" style="fill:#FF725E"></path><path d="M130.28,186.47c-9.65,23.1-13.36,43.54-8.28,45.66s17-14.88,26.66-38S162,150.62,157,148.5,139.94,163.38,130.28,186.47Z" style="fill:#263238"></path><polygon points="256.4 244.1 248.48 241.86 253.08 232.47 259.07 235.97 256.4 244.1" style="fill:#455a64"></polygon><polygon points="210.81 243.52 232.31 256.39 234.8 251.15 210.81 243.52" style="fill:#263238"></polygon><polygon points="253.08 232.47 248.48 241.86 250.1 242.32 253.79 232.89 253.08 232.47" style="fill:#263238"></polygon><path d="M204.35,237.69s-5.55-1.86-5.37-1.81,17.2-31.37,17.2-31.37l1.35.61L204.9,236.65" style="fill:#263238"></path><path d="M247.72,234.76c-.11.26-4.07-1.15-8.85-3.16s-8.58-3.83-8.47-4.08,4.07,1.15,8.86,3.15S247.83,234.5,247.72,234.76Z" style="fill:#263238"></path><path d="M250,229.19c-.11.25-3.7-1.15-8-3.12s-7.72-3.78-7.6-4,3.71,1.15,8,3.12S250.1,228.93,250,229.19Z" style="fill:#263238"></path><path d="M244.84,240.62c0,.14-1-.05-2.48-.47-.75-.21-1.64-.47-2.63-.78s-2-.81-3.09-1.26c-4.35-1.88-7.69-3.74-7.59-4s3.67,1.18,8,3c1.08.45,2.09,1,3,1.32s1.8.68,2.51,1C244,240.06,244.87,240.49,244.84,240.62Z" style="fill:#263238"></path><path d="M151.14,180.81s-12-7-17.95,9.11,6.46,18.32,6.46,18.32A105.88,105.88,0,0,0,151.14,180.81Z" style="fill:#FF725E"></path><path d="M163.1,161.52a18.13,18.13,0,0,1-.37,3c-.32,2-.77,4.78-1.42,8.26-.45,1.72-.94,3.6-1.47,5.61-.26,1-.54,2.05-.82,3.12-.14.54-.29,1.08-.44,1.63s-.37,1.09-.56,1.64c-.78,2.21-1.61,4.53-2.46,6.93-.21.6-.43,1.21-.65,1.82s-.52,1.19-.78,1.8L152.49,199l-1.65,3.65c-.28.6-.52,1.21-.84,1.78l-.93,1.69-3.57,6.43c-.29.51-.55,1-.85,1.51l-.94,1.4-1.8,2.69L138.67,223c-2.17,2.78-4,5-5.24,6.52a19.79,19.79,0,0,1-2,2.3,16.54,16.54,0,0,1,1.73-2.55c1.2-1.62,2.9-3.91,5-6.71l3.11-4.85L143,215l.91-1.4c.29-.49.55-1,.83-1.51l3.49-6.42.92-1.68c.32-.56.55-1.17.83-1.77.53-1.19,1.08-2.4,1.63-3.62s1.1-2.44,1.64-3.63c.26-.6.56-1.17.77-1.78s.44-1.21.66-1.8c.86-2.38,1.7-4.68,2.5-6.87.19-.54.41-1.08.58-1.62l.45-1.61.87-3.09c.56-2,1.09-3.85,1.57-5.55l1.73-8.17A17.71,17.71,0,0,1,163.1,161.52Z" style="fill:#263238"></path><path d="M281.24,252.84s-11.54,21.37-14.64,21.7c-17.12,1.78-35.46-3.84-41.89-6.07-.65-.75-1.4-1.64-2.23-2.73a10.76,10.76,0,0,1-1.62-3.14,16.56,16.56,0,0,1-.93-4.33,1.33,1.33,0,0,0-2.31-1.06c-.74,1-.92,4.76.78,8.79s-4.29.87-6.49-.24-9.18-4.21-10.06-3.78c-1.28.62-.88,2.14,1.35,3.2s8.68,4.7,8,5.87-11.77-4.65-11.77-4.65-2.18-1.64-3-.31c-1.41,2.39,10.89,7.66,12.07,8.13.82.33.17,1.62-.69,1.23s-11-6.06-12.44-3.64c-1.11,1.86,10.08,4.44,11.53,6.8s-8.29-2.84-9.29-1c-.37.68-.55,1.24,5.47,3.4a122.86,122.86,0,0,0,13.41,3.36l0,.06s57.8,27,73,.21c9.94-17.49,10.87-19.71,14.39-29.59" style="fill:#b78876"></path></g></svg>